<mxfile host="Electron" agent="Mozilla/5.0 (Windows NT 10.0; Win64; x64) AppleWebKit/537.36 (KHTML, like Gecko) draw.io/28.2.8 Chrome/140.0.7339.240 Electron/38.4.0 Safari/537.36" version="28.2.8">
  <diagram name="Page-1" id="GOUJpLKXUA8Us93nTQAi">
    <mxGraphModel dx="2066" dy="1201" grid="1" gridSize="10" guides="1" tooltips="1" connect="1" arrows="1" fold="1" page="1" pageScale="1" pageWidth="850" pageHeight="1100" math="0" shadow="0">
      <root>
        <mxCell id="0" />
        <mxCell id="1" parent="0" />
        <mxCell id="a0vSVEjOP1mqH1hVoTn6-1" value="Customer&lt;div&gt;&lt;br&gt;&lt;/div&gt;&lt;div&gt;customer_id&lt;/div&gt;&lt;div&gt;name&lt;/div&gt;&lt;div&gt;email&lt;/div&gt;&lt;div&gt;phone_number&lt;/div&gt;&lt;div&gt;signup_date&lt;/div&gt;&lt;div&gt;address&lt;/div&gt;&lt;div&gt;gender&lt;/div&gt;" style="rounded=0;whiteSpace=wrap;html=1;" parent="1" vertex="1">
          <mxGeometry x="40" y="285" width="140" height="180" as="geometry" />
        </mxCell>
        <mxCell id="a0vSVEjOP1mqH1hVoTn6-2" value="Order&lt;div&gt;&lt;br&gt;&lt;/div&gt;&lt;div&gt;order_id&lt;/div&gt;&lt;div&gt;menu_id&lt;/div&gt;&lt;div&gt;revenue_id&lt;/div&gt;&lt;div&gt;quantity&lt;/div&gt;&lt;div&gt;price&lt;/div&gt;&lt;div&gt;taxes&lt;/div&gt;&lt;div&gt;tip&lt;/div&gt;&lt;div&gt;total_order_cost&lt;/div&gt;&lt;div&gt;status&lt;/div&gt;&lt;div&gt;promoiton_id&lt;/div&gt;" style="rounded=0;whiteSpace=wrap;html=1;" parent="1" vertex="1">
          <mxGeometry x="270" y="290" width="140" height="170" as="geometry" />
        </mxCell>
        <mxCell id="a0vSVEjOP1mqH1hVoTn6-3" value="Revenue&lt;div&gt;&lt;br&gt;&lt;div&gt;order_id&lt;/div&gt;&lt;div&gt;amount&lt;/div&gt;&lt;div&gt;platform_fee&lt;/div&gt;&lt;div&gt;restarant_payout&lt;/div&gt;&lt;/div&gt;" style="rounded=0;whiteSpace=wrap;html=1;" parent="1" vertex="1">
          <mxGeometry x="540" y="490" width="140" height="120" as="geometry" />
        </mxCell>
        <mxCell id="a0vSVEjOP1mqH1hVoTn6-5" value="Menu&lt;div&gt;&lt;br&gt;&lt;/div&gt;&lt;div&gt;Menu_id&lt;/div&gt;&lt;div&gt;name&lt;/div&gt;&lt;div&gt;category&lt;/div&gt;&lt;div&gt;description&lt;/div&gt;&lt;div&gt;price&lt;/div&gt;&lt;div&gt;availablity&lt;/div&gt;&lt;div&gt;restaruant_id&lt;/div&gt;" style="rounded=0;whiteSpace=wrap;html=1;" parent="1" vertex="1">
          <mxGeometry x="260" y="37.5" width="160" height="155" as="geometry" />
        </mxCell>
        <mxCell id="a0vSVEjOP1mqH1hVoTn6-6" value="Delivery&lt;div&gt;&lt;br&gt;&lt;div&gt;Deliver_id&lt;/div&gt;&lt;div&gt;driver_id&lt;/div&gt;&lt;div&gt;status&lt;/div&gt;&lt;div&gt;current_location&lt;/div&gt;&lt;/div&gt;" style="rounded=0;whiteSpace=wrap;html=1;" parent="1" vertex="1">
          <mxGeometry x="535" y="210" width="110" height="100" as="geometry" />
        </mxCell>
        <mxCell id="a0vSVEjOP1mqH1hVoTn6-7" value="Promotions&lt;div&gt;&lt;br&gt;&lt;/div&gt;&lt;div&gt;Promotion_id&lt;/div&gt;&lt;div&gt;Promotion description&lt;/div&gt;&lt;div&gt;discount_type&lt;/div&gt;&lt;div&gt;start_date&lt;/div&gt;&lt;div&gt;end_date&lt;/div&gt;" style="rounded=0;whiteSpace=wrap;html=1;" parent="1" vertex="1">
          <mxGeometry x="535" y="330" width="145" height="130" as="geometry" />
        </mxCell>
        <mxCell id="a0vSVEjOP1mqH1hVoTn6-8" value="Restarant&lt;div&gt;&lt;br&gt;&lt;/div&gt;&lt;div&gt;restaurant_id&lt;/div&gt;&lt;div&gt;name&lt;/div&gt;&lt;div&gt;location&lt;/div&gt;&lt;div&gt;cusine_type&lt;/div&gt;&lt;div&gt;rating&lt;/div&gt;&lt;div&gt;active_status&lt;/div&gt;" style="rounded=0;whiteSpace=wrap;html=1;" parent="1" vertex="1">
          <mxGeometry x="50" y="40" width="140" height="150" as="geometry" />
        </mxCell>
        <mxCell id="a0vSVEjOP1mqH1hVoTn6-11" value="" style="edgeStyle=entityRelationEdgeStyle;fontSize=12;html=1;endArrow=ERzeroToMany;endFill=1;rounded=0;exitX=1;exitY=0.5;exitDx=0;exitDy=0;entryX=0;entryY=0.5;entryDx=0;entryDy=0;" parent="1" source="a0vSVEjOP1mqH1hVoTn6-8" target="a0vSVEjOP1mqH1hVoTn6-5" edge="1">
          <mxGeometry width="100" height="100" relative="1" as="geometry">
            <mxPoint x="140" y="130" as="sourcePoint" />
            <mxPoint x="150" y="390" as="targetPoint" />
          </mxGeometry>
        </mxCell>
        <mxCell id="a0vSVEjOP1mqH1hVoTn6-12" value="" style="edgeStyle=entityRelationEdgeStyle;fontSize=12;html=1;endArrow=ERoneToMany;rounded=0;exitX=1;exitY=0.5;exitDx=0;exitDy=0;entryX=0;entryY=0.5;entryDx=0;entryDy=0;" parent="1" source="a0vSVEjOP1mqH1hVoTn6-1" target="a0vSVEjOP1mqH1hVoTn6-2" edge="1">
          <mxGeometry width="100" height="100" relative="1" as="geometry">
            <mxPoint x="380" y="360" as="sourcePoint" />
            <mxPoint x="480" y="260" as="targetPoint" />
          </mxGeometry>
        </mxCell>
        <mxCell id="a0vSVEjOP1mqH1hVoTn6-13" value="" style="edgeStyle=entityRelationEdgeStyle;fontSize=12;html=1;endArrow=ERoneToMany;rounded=0;entryX=1;entryY=0.5;entryDx=0;entryDy=0;" parent="1" target="a0vSVEjOP1mqH1hVoTn6-5" edge="1">
          <mxGeometry width="100" height="100" relative="1" as="geometry">
            <mxPoint x="420" y="290" as="sourcePoint" />
            <mxPoint x="470" y="110" as="targetPoint" />
          </mxGeometry>
        </mxCell>
        <mxCell id="a0vSVEjOP1mqH1hVoTn6-17" value="Customer Feedback&lt;div&gt;&lt;br&gt;&lt;div&gt;customer_id&lt;/div&gt;&lt;div&gt;order_id&lt;/div&gt;&lt;div&gt;customer_feedback_id&lt;/div&gt;&lt;div&gt;&lt;span style=&quot;background-color: transparent; color: light-dark(rgb(0, 0, 0), rgb(255, 255, 255));&quot;&gt;feedback_type&lt;/span&gt;&lt;/div&gt;&lt;div&gt;&lt;span style=&quot;background-color: transparent; color: light-dark(rgb(0, 0, 0), rgb(255, 255, 255));&quot;&gt;feedback_description&lt;/span&gt;&lt;/div&gt;&lt;/div&gt;" style="whiteSpace=wrap;html=1;" parent="1" vertex="1">
          <mxGeometry x="140" y="560" width="175" height="160" as="geometry" />
        </mxCell>
        <mxCell id="a0vSVEjOP1mqH1hVoTn6-19" value="" style="edgeStyle=entityRelationEdgeStyle;fontSize=12;html=1;endArrow=ERmandOne;startArrow=ERmandOne;rounded=0;exitX=1.014;exitY=0.171;exitDx=0;exitDy=0;exitPerimeter=0;" parent="1" source="a0vSVEjOP1mqH1hVoTn6-2" target="a0vSVEjOP1mqH1hVoTn6-6" edge="1">
          <mxGeometry width="100" height="100" relative="1" as="geometry">
            <mxPoint x="435" y="330" as="sourcePoint" />
            <mxPoint x="535" y="230" as="targetPoint" />
          </mxGeometry>
        </mxCell>
        <mxCell id="a0vSVEjOP1mqH1hVoTn6-20" value="" style="edgeStyle=entityRelationEdgeStyle;fontSize=12;html=1;endArrow=ERmany;startArrow=ERmany;rounded=0;exitX=1.007;exitY=0.376;exitDx=0;exitDy=0;exitPerimeter=0;entryX=0;entryY=0.25;entryDx=0;entryDy=0;" parent="1" source="a0vSVEjOP1mqH1hVoTn6-2" target="a0vSVEjOP1mqH1hVoTn6-7" edge="1">
          <mxGeometry width="100" height="100" relative="1" as="geometry">
            <mxPoint x="480" y="465" as="sourcePoint" />
            <mxPoint x="580" y="365" as="targetPoint" />
          </mxGeometry>
        </mxCell>
        <mxCell id="a0vSVEjOP1mqH1hVoTn6-21" value="Driver&lt;br&gt;&lt;div&gt;&lt;br&gt;&lt;/div&gt;&lt;div&gt;driver_id&lt;/div&gt;&lt;div&gt;name&lt;/div&gt;&lt;div&gt;email&lt;/div&gt;&lt;div&gt;phone_number&lt;/div&gt;&lt;div&gt;address&lt;/div&gt;&lt;div&gt;gender&lt;/div&gt;&lt;div&gt;vehicle_type&lt;/div&gt;" style="rounded=0;whiteSpace=wrap;html=1;" parent="1" vertex="1">
          <mxGeometry x="720" y="50" width="140" height="180" as="geometry" />
        </mxCell>
        <mxCell id="a0vSVEjOP1mqH1hVoTn6-22" value="" style="edgeStyle=entityRelationEdgeStyle;fontSize=12;html=1;endArrow=ERoneToMany;startArrow=ERmandOne;rounded=0;exitX=1;exitY=0.25;exitDx=0;exitDy=0;entryX=0.021;entryY=0.156;entryDx=0;entryDy=0;entryPerimeter=0;" parent="1" source="a0vSVEjOP1mqH1hVoTn6-6" target="a0vSVEjOP1mqH1hVoTn6-21" edge="1">
          <mxGeometry width="100" height="100" relative="1" as="geometry">
            <mxPoint x="600" y="180" as="sourcePoint" />
            <mxPoint x="700" y="80" as="targetPoint" />
          </mxGeometry>
        </mxCell>
        <mxCell id="a0vSVEjOP1mqH1hVoTn6-23" value="" style="edgeStyle=entityRelationEdgeStyle;fontSize=12;html=1;endArrow=ERmandOne;startArrow=ERmandOne;rounded=0;entryX=0;entryY=0.058;entryDx=0;entryDy=0;entryPerimeter=0;" parent="1" source="a0vSVEjOP1mqH1hVoTn6-2" target="a0vSVEjOP1mqH1hVoTn6-3" edge="1">
          <mxGeometry width="100" height="100" relative="1" as="geometry">
            <mxPoint x="410" y="590" as="sourcePoint" />
            <mxPoint x="510" y="490" as="targetPoint" />
          </mxGeometry>
        </mxCell>
        <mxCell id="a0vSVEjOP1mqH1hVoTn6-28" value="" style="edgeStyle=entityRelationEdgeStyle;fontSize=12;html=1;endArrow=ERzeroToOne;endFill=1;rounded=0;exitX=0.5;exitY=1;exitDx=0;exitDy=0;entryX=1;entryY=0;entryDx=0;entryDy=0;" parent="1" source="a0vSVEjOP1mqH1hVoTn6-2" target="a0vSVEjOP1mqH1hVoTn6-17" edge="1">
          <mxGeometry width="100" height="100" relative="1" as="geometry">
            <mxPoint x="340" y="620" as="sourcePoint" />
            <mxPoint x="440" y="520" as="targetPoint" />
          </mxGeometry>
        </mxCell>
      </root>
    </mxGraphModel>
  </diagram>
</mxfile>
